<?xml version="1.0"?>
<svg xmlns="http://www.w3.org/2000/svg" xmlns:xlink="http://www.w3.org/1999/xlink" xmlns:svgjs="http://svgjs.com/svgjs" version="1.1" width="512" height="512" x="0" y="0" viewBox="0 0 511.904 511.904" style="enable-background:new 0 0 512 512" xml:space="preserve" class=""><g><g xmlns="http://www.w3.org/2000/svg"><g><g><path d="m451.93 59.974c-79.966-79.965-210.079-79.965-290.044 0-77.594 77.595-79.894 202.407-6.9 282.802l-27.649 27.649-14.916-14.916c-1.876-1.875-4.419-2.929-7.071-2.929s-5.196 1.054-7.071 2.929l-86.242 86.243c-7.762 7.761-12.037 18.081-12.037 29.058s4.275 21.296 12.036 29.058c7.762 7.761 18.082 12.036 29.058 12.036 10.977 0 21.296-4.275 29.058-12.036l86.243-86.242c1.875-1.875 2.929-4.419 2.929-7.071s-1.054-5.196-2.929-7.071l-14.916-14.916 27.649-27.649c38.969 35.382 88.375 53.073 137.78 53.073 52.519 0 105.039-19.991 145.022-59.974 79.965-79.966 79.965-210.079 0-290.044zm-395.92 425.751c-3.984 3.984-9.281 6.179-14.916 6.179-5.634 0-10.932-2.194-14.915-6.179-3.985-3.984-6.179-9.281-6.179-14.915s2.194-10.932 6.179-14.916l79.171-79.172 29.832 29.832zm381.778-149.85c-72.167 72.168-189.592 72.168-261.759.001-72.167-72.168-72.167-189.593-.001-261.76 36.084-36.084 83.482-54.126 130.88-54.126s94.796 18.042 130.879 54.126c72.168 72.167 72.168 189.592.001 261.759z" fill="#361d48" data-original="#000000" class=""/><path d="m467.73 203.043c-.774-4.121-4.26-7.34-8.38-7.94-4.151-.605-8.417 1.569-10.31 5.325-1.883 3.737-1.283 8.333 1.593 11.401 2.821 3.009 7.305 3.974 11.117 2.404 4.346-1.788 6.915-6.581 5.98-11.19z" fill="#361d48" data-original="#000000" class=""/><path d="m453.914 241.154c-5.268-1.662-10.884 1.261-12.545 6.528-6.848 21.703-18.52 40.908-34.694 57.082-26.648 26.648-62.079 41.325-99.767 41.325-37.687 0-73.119-14.676-99.768-41.325-55.011-55.012-55.011-144.522 0-199.534 26.649-26.649 62.081-41.325 99.768-41.325 37.688 0 73.119 14.676 99.767 41.325 15.992 15.992 28.009 35.794 34.751 57.264 1.654 5.27 7.268 8.199 12.537 6.544 5.269-1.654 8.199-7.268 6.544-12.537-7.704-24.532-21.428-47.152-39.69-65.414-30.426-30.427-70.88-47.183-113.909-47.183s-83.483 16.756-113.91 47.183c-62.809 62.81-62.809 165.009 0 227.819 30.427 30.426 70.88 47.183 113.91 47.183s83.483-16.756 113.909-47.183c18.209-18.208 31.911-40.756 39.625-65.206 1.661-5.268-1.261-10.885-6.528-12.546z" fill="#361d48" data-original="#000000" class=""/><path d="m333.529 153.704-38.764 38.765-14.478-14.48c-12.929-12.928-33.964-12.928-46.892 0s-12.928 33.964 0 46.892l44.003 44.003c4.789 4.788 11.078 7.182 17.368 7.182s12.58-2.394 17.368-7.182l68.288-68.289c12.928-12.928 12.928-33.963 0-46.892 0 0 0 0 0-.001-12.93-12.927-33.965-12.926-46.893.002zm32.75 32.749-68.288 68.289c-1.778 1.779-4.672 1.779-6.451.001l-44.002-44.003c-5.13-5.13-5.13-13.477 0-18.607 2.565-2.565 5.934-3.848 9.304-3.848 3.369 0 6.739 1.283 9.303 3.847l21.55 21.55c1.876 1.876 4.419 2.929 7.071 2.929s5.196-1.054 7.071-2.929l45.835-45.835c5.13-5.131 13.478-5.13 18.607-.001 5.13 5.13 5.13 13.477 0 18.607z" fill="#361d48" data-original="#000000" class=""/></g></g></g></g></svg>
