<svg xmlns="http://www.w3.org/2000/svg" width="22.141" height="26.126" viewBox="0 0 22.141 26.126">
  <g id="shopping-bag" transform="translate(0)">
    <g id="Group_55" data-name="Group 55" transform="translate(7.944)">
      <g id="Group_54" data-name="Group 54">
        <path id="Path_25" data-name="Path 25" d="M83.445,3.228a3.764,3.764,0,0,0-6.767-1.682.443.443,0,1,0,.715.522,2.879,2.879,0,0,1,5.175,1.285.443.443,0,0,0,.438.38.474.474,0,0,0,.063,0A.443.443,0,0,0,83.445,3.228Z" transform="translate(-76.593)" fill="#361d48"/>
      </g>
    </g>
    <g id="Group_57" data-name="Group 57" transform="translate(0.885 5.756)">
      <g id="Group_56" data-name="Group 56" transform="translate(0)">
        <path id="Path_26" data-name="Path 26" d="M42.491,46.8l-1.328-2.214a.442.442,0,0,0-.38-.215H39.51a.443.443,0,1,0,0,.886h1.022l.8,1.328H23.41l.8-1.328h.469a.443.443,0,1,0,0-.886h-.72a.442.442,0,0,0-.38.215L22.248,46.8a.443.443,0,0,0,.38.671H42.112a.443.443,0,0,0,.38-.671Z" transform="translate(-22.185 -44.372)" fill="#361d48"/>
      </g>
    </g>
    <g id="Group_59" data-name="Group 59" transform="translate(11.674 2.481)">
      <g id="Group_58" data-name="Group 58">
        <path id="Path_27" data-name="Path 27" d="M112.654,20.747a.442.442,0,0,0-.275-.2l-6.036-1.412a.442.442,0,0,0-.532.33l-.455,1.946a.443.443,0,0,0,.862.2l.354-1.515,5.174,1.21-.813,3.476a.442.442,0,0,0,.33.532.448.448,0,0,0,.1.012.442.442,0,0,0,.43-.342l.914-3.907A.441.441,0,0,0,112.654,20.747Z" transform="translate(-105.343 -19.126)" fill="#361d48"/>
      </g>
    </g>
    <g id="Group_61" data-name="Group 61" transform="translate(2.612 1.346)">
      <g id="Group_60" data-name="Group 60" transform="translate(0)">
        <path id="Path_28" data-name="Path 28" d="M44.186,14.177l-.4-3.413a.443.443,0,0,0-.492-.388l-7.406.875a.443.443,0,0,0-.388.492l.673,5.692a.443.443,0,0,0,.439.391.484.484,0,0,0,.053,0,.443.443,0,0,0,.388-.492l-.621-5.252,6.527-.771.351,2.973a.443.443,0,0,0,.88-.1Z" transform="translate(-35.494 -10.374)" fill="#361d48"/>
      </g>
    </g>
    <g id="Group_63" data-name="Group 63" transform="translate(5.92 4.251)">
      <g id="Group_62" data-name="Group 62" transform="translate(0)">
        <path id="Path_29" data-name="Path 29" d="M69.883,36.763,69,33.108a.442.442,0,0,0-.534-.327L61.336,34.5a.443.443,0,0,0-.327.534l.439,1.827a.443.443,0,1,0,.861-.207l-.336-1.4,6.272-1.508.775,3.224a.443.443,0,0,0,.861-.207Z" transform="translate(-60.997 -32.769)" fill="#361d48"/>
      </g>
    </g>
    <g id="Group_65" data-name="Group 65" transform="translate(0 7.971)">
      <g id="Group_64" data-name="Group 64">
        <path id="Path_30" data-name="Path 30" d="M36.613,61.861a.443.443,0,0,0-.442-.42H16.687a.443.443,0,0,0-.442.42l-.886,17.27a.443.443,0,0,0,.442.465H37.056a.443.443,0,0,0,.443-.465ZM16.267,78.71l.84-16.384H35.75l.84,16.384Z" transform="translate(-15.359 -61.441)" fill="#361d48"/>
      </g>
    </g>
    <g id="Group_67" data-name="Group 67" transform="translate(13.063 9.742)">
      <g id="Group_66" data-name="Group 66" transform="translate(0)">
        <path id="Path_31" data-name="Path 31" d="M117.38,75.093a1.328,1.328,0,1,0,1.328,1.328A1.33,1.33,0,0,0,117.38,75.093Zm0,1.771a.443.443,0,1,1,.443-.443A.443.443,0,0,1,117.38,76.864Z" transform="translate(-116.052 -75.093)" fill="#361d48"/>
      </g>
    </g>
    <g id="Group_69" data-name="Group 69" transform="translate(6.421 9.742)">
      <g id="Group_68" data-name="Group 68">
        <path id="Path_32" data-name="Path 32" d="M66.18,75.093a1.328,1.328,0,1,0,1.328,1.328A1.33,1.33,0,0,0,66.18,75.093Zm0,1.771a.443.443,0,1,1,.443-.443A.443.443,0,0,1,66.18,76.864Z" transform="translate(-64.852 -75.093)" fill="#361d48"/>
      </g>
    </g>
    <g id="Group_71" data-name="Group 71" transform="translate(7.306 11.07)">
      <g id="Group_70" data-name="Group 70" transform="translate(0)">
        <path id="Path_33" data-name="Path 33" d="M78.764,85.333H78.73a.443.443,0,0,0-.443.443.438.438,0,0,0,.034.171v2.265a2.878,2.878,0,0,1-5.757,0V85.776a.443.443,0,0,0-.886,0v2.435a3.764,3.764,0,0,0,7.528,0V85.776A.443.443,0,0,0,78.764,85.333Z" transform="translate(-71.679 -85.333)" fill="#361d48"/>
      </g>
    </g>
  </g>
</svg>
