<svg xmlns="http://www.w3.org/2000/svg" width="28.501" height="26.126" viewBox="0 0 28.501 26.126">
  <path id="users" d="M26.133,22.873,21.595,20.6a1.249,1.249,0,0,1-.694-1.123V17.875c.109-.133.223-.285.342-.452a10.871,10.871,0,0,0,1.4-2.755,1.885,1.885,0,0,0,1.105-1.718v-1.9A1.894,1.894,0,0,0,23.276,9.8V7.277a4.258,4.258,0,0,0-.994-3.1C21.306,3.064,19.723,2.5,17.576,2.5s-3.731.564-4.706,1.677a4.126,4.126,0,0,0-.98,2.282,6.17,6.17,0,0,0-2.863-.634C4.09,5.825,3.8,10.031,3.8,10.1v2.175a1.654,1.654,0,0,0-.475,1.107v1.641a1.7,1.7,0,0,0,.623,1.313,7.28,7.28,0,0,0,1.731,2.985v1.3a1.032,1.032,0,0,1-.556.91l-3.16,1.982A3.764,3.764,0,0,0,0,26.822v1.8H28.5v-1.92A4.262,4.262,0,0,0,26.133,22.873ZM6.65,26.613v1.063H.95v-.854a2.828,2.828,0,0,1,1.492-2.486L5.6,22.354a1.968,1.968,0,0,0,1.027-1.73V18.919l-.151-.141A6.328,6.328,0,0,1,4.83,15.949l-.043-.188-.162-.1a.755.755,0,0,1-.349-.634V13.382a.83.83,0,0,1,.319-.558l.156-.141V10.128c.009-.136.256-3.353,4.276-3.353a4.945,4.945,0,0,1,2.85.781V9.8A1.894,1.894,0,0,0,11.4,11.05v1.9a1.91,1.91,0,0,0,.048.424c.013.055.038.105.056.159a1.877,1.877,0,0,0,.084.238v0a1.9,1.9,0,0,0,.522.654c0,.009.005.017.008.026.029.109.058.217.091.323l.038.124c.007.022.015.044.022.066.017.051.033.1.05.152.029.083.058.169.093.263.015.039.031.074.046.113.039.1.078.2.119.29.01.023.019.048.028.07l.027.06c.012.028.025.052.038.079.047.1.092.2.14.295l.022.047c.03.059.06.115.09.172.051.1.1.19.152.279l.073.128c.068.117.133.224.2.324l.04.064c.115.178.215.323.3.435l.059.081.034.046v1.572a1.255,1.255,0,0,1-.654,1.1l-1.257.685-.219-.019-.089.188L8.883,22.85A4.285,4.285,0,0,0,6.65,26.613Zm20.9,1.063H7.6V26.613a3.333,3.333,0,0,1,1.738-2.928l4.238-2.311a2.206,2.206,0,0,0,1.15-1.937V17.528h0l-.092-.11-.018-.021s-.03-.037-.078-.1l-.009-.011c-.025-.033-.055-.072-.088-.119v0c-.071-.1-.16-.226-.258-.38l-.007-.01c-.047-.073-.1-.152-.146-.236l-.011-.019c-.107-.18-.221-.384-.335-.609h0c-.06-.121-.121-.248-.18-.381h0l-.025-.055h0c-.026-.059-.052-.122-.079-.186l-.029-.071c-.025-.062-.05-.125-.076-.2-.048-.129-.094-.264-.138-.4l-.026-.085-.009-.029c-.045-.15-.087-.3-.124-.461l-.043-.188-.162-.1a.947.947,0,0,1-.44-.8v-1.9a.938.938,0,0,1,.318-.7l.157-.141V7.082l-.013-.01A3.288,3.288,0,0,1,13.584,4.8,5.1,5.1,0,0,1,17.576,3.45a5.114,5.114,0,0,1,3.984,1.343,3.343,3.343,0,0,1,.771,2.395l0,3.021.157.142a.936.936,0,0,1,.318.7v1.9a.945.945,0,0,1-.675.9l-.237.073-.076.235a9.944,9.944,0,0,1-1.346,2.714,6.25,6.25,0,0,1-.4.513l-.118.135v1.959a2.194,2.194,0,0,0,1.219,1.973l4.538,2.269a3.317,3.317,0,0,1,1.844,2.983Z" transform="translate(0 -2.5)" fill="#361d48"/>
</svg>
