<svg xmlns="http://www.w3.org/2000/svg" width="94" height="70" viewBox="0 0 94 70">
  <g id="Component_80_1" data-name="Component 80 – 1" transform="translate(1)">
    <text id="Zaloguj_się" data-name="Zaloguj się" transform="translate(46 65)" fill="#361d48" font-size="15" font-family="Poppins-Medium, Poppins" font-weight="500"><tspan x="-46" y="0">ZALOGUJ SIĘ</tspan></text>
    <path id="users" d="M39.952,33.646l-6.937-3.468a1.91,1.91,0,0,1-1.061-1.717V26.005c.166-.2.341-.435.522-.691A16.62,16.62,0,0,0,34.62,21.1a2.881,2.881,0,0,0,1.69-2.627v-2.9a2.9,2.9,0,0,0-.726-1.906V9.8a6.51,6.51,0,0,0-1.519-4.739c-1.492-1.7-3.912-2.564-7.2-2.564s-5.7.863-7.2,2.564a6.307,6.307,0,0,0-1.5,3.489A9.433,9.433,0,0,0,13.8,7.583c-7.545,0-7.984,6.431-7.988,6.536v3.325a2.528,2.528,0,0,0-.726,1.692v2.508a2.591,2.591,0,0,0,.952,2.008,11.13,11.13,0,0,0,2.646,4.564v1.992a1.578,1.578,0,0,1-.85,1.391L3,34.63a5.754,5.754,0,0,0-3,5.054v2.757H43.572V39.505A6.516,6.516,0,0,0,39.952,33.646ZM10.167,39.364v1.625H1.452v-1.3a4.323,4.323,0,0,1,2.281-3.8l4.831-3.03a3.009,3.009,0,0,0,1.569-2.644V27.6L9.9,27.386a9.674,9.674,0,0,1-2.518-4.325l-.066-.288-.248-.16a1.154,1.154,0,0,1-.534-.969V19.137a1.269,1.269,0,0,1,.487-.853l.239-.216V14.161c.013-.208.391-5.126,6.537-5.126a7.561,7.561,0,0,1,4.357,1.194v3.436a2.9,2.9,0,0,0-.726,1.906v2.9a2.92,2.92,0,0,0,.073.649c.02.084.059.161.086.243a2.868,2.868,0,0,0,.128.363l0,0a2.909,2.909,0,0,0,.8,1c0,.014.008.026.012.039.044.166.089.332.139.494l.059.19c.01.033.023.068.033.1.025.078.05.156.076.233.044.127.089.259.142.4.023.06.047.113.07.172.06.152.119.3.182.444.015.035.028.073.044.107l.041.092c.019.042.038.08.057.121.071.155.141.306.214.451.012.023.023.049.034.072.046.091.092.176.137.264.078.15.155.29.232.427.038.067.075.132.112.2.1.179.2.343.3.5.021.033.041.067.062.1.176.272.328.493.455.665l.091.123.052.07v2.4a1.919,1.919,0,0,1-1,1.685l-1.922,1.048L17.8,31.1l-.137.287-4.086,2.229A6.551,6.551,0,0,0,10.167,39.364ZM42.12,40.989h-30.5V39.364a5.1,5.1,0,0,1,2.657-4.476l6.478-3.534a3.372,3.372,0,0,0,1.757-2.961V25.475h0l-.141-.168-.028-.033s-.046-.057-.12-.153L22.21,25.1c-.038-.05-.084-.11-.135-.182l0,0c-.108-.15-.244-.346-.4-.581l-.01-.016c-.071-.111-.147-.232-.224-.361l-.017-.029c-.164-.275-.338-.587-.512-.932h0c-.092-.185-.184-.38-.275-.582h0l-.038-.084h0c-.04-.091-.08-.186-.121-.284l-.044-.109c-.038-.1-.076-.191-.117-.3-.074-.2-.144-.4-.211-.617l-.04-.129c0-.015-.009-.029-.014-.044-.068-.229-.134-.464-.189-.705l-.066-.288-.248-.16a1.448,1.448,0,0,1-.672-1.218v-2.9a1.433,1.433,0,0,1,.487-1.071l.24-.216V9.5l-.02-.015a5.027,5.027,0,0,1,1.179-3.468c1.2-1.373,3.257-2.069,6.1-2.069s4.885.691,6.09,2.054a5.111,5.111,0,0,1,1.179,3.661l-.007,4.618.24.216a1.431,1.431,0,0,1,.487,1.07v2.9a1.444,1.444,0,0,1-1.033,1.379l-.362.111-.116.359a15.2,15.2,0,0,1-2.058,4.149,9.555,9.555,0,0,1-.608.784l-.181.206v3a3.354,3.354,0,0,0,1.863,3.016L39.3,34.945a5.071,5.071,0,0,1,2.818,4.561Z" transform="translate(24 -2.5)" fill="#361d48"/>
  </g>
</svg>
